<svg width="35" height="35" viewBox="0 0 35 35" fill="none" xmlns="http://www.w3.org/2000/svg">
<path fill-rule="evenodd" clip-rule="evenodd" d="M17.6544 0.428345C8.26546 0.428345 0.654358 8.04002 0.654358 17.4283C0.654358 26.8167 8.26546 34.4283 17.6544 34.4283C27.0421 34.4283 34.6544 26.8161 34.6544 17.4283C34.6544 8.04058 27.0421 0.428345 17.6544 0.428345ZM17.6545 2.97834C25.6339 2.97834 32.1045 9.4489 32.1045 17.4283C32.1045 25.4078 25.6339 31.8783 17.6545 31.8783C9.67398 31.8783 3.20451 25.4084 3.20451 17.4283C3.20451 9.4483 9.67398 2.97834 17.6545 2.97834ZM12.5142 13.9531C12.0159 13.5817 11.3075 13.6213 10.8539 14.073C10.3549 14.5698 10.3531 15.3771 10.85 15.8761L16.7507 21.8023L16.8939 21.9264C17.3938 22.2987 18.1046 22.2573 18.5577 21.8023L24.4584 15.8761L24.5815 15.7328C24.9508 15.2329 24.9081 14.5246 24.4545 14.073L24.3112 13.9498C23.8113 13.5805 23.1031 13.6232 22.6514 14.0768L17.6525 19.0944L12.657 14.0768L12.5142 13.9531Z" fill="white"/>
</svg>
