<svg width="15" height="20" viewBox="0 0 15 20" fill="none" xmlns="http://www.w3.org/2000/svg">
<path d="M13.4055 9.02497C13.7014 9.04893 13.998 9.03349 14.2943 9.03586C14.3623 9.03646 14.3855 9.05448 14.3853 9.12497C14.3827 10.3921 14.3889 11.6592 14.3789 12.9263C14.3747 13.4542 14.2913 13.975 14.1563 14.4873C13.9952 15.0988 13.7534 15.6766 13.4343 16.2229C13.201 16.6223 12.9261 16.9924 12.6171 17.338C12.1171 17.8972 11.5406 18.3657 10.8878 18.7376C10.1742 19.1443 9.41122 19.42 8.59745 19.5615C8.0592 19.6552 7.51855 19.6754 6.97629 19.6512C6.39685 19.6253 5.83041 19.5174 5.27616 19.3433C4.60595 19.133 3.98212 18.8314 3.40628 18.434C2.83823 18.0421 2.33797 17.5784 1.90669 17.0404C1.48441 16.5142 1.1451 15.9414 0.89337 15.3182C0.645439 14.7039 0.480684 14.0681 0.427499 13.4069C0.35092 12.455 0.404505 11.5012 0.391509 10.5483C0.38511 10.0798 0.393108 9.61111 0.388109 9.14259C0.38711 9.0517 0.416102 9.03348 0.500678 9.03507C0.753809 9.04022 1.00714 9.03725 1.26027 9.03646C1.29646 9.03626 1.33265 9.03091 1.36884 9.02794C1.41883 9.00339 1.47261 9.00893 1.5256 9.00893C2.23 9.00794 2.93421 9.01012 3.63861 9.00735C3.72479 8.98319 3.81077 9.00952 3.89694 9.00952C5.23857 9.00853 6.5802 9.01467 7.92183 9.00398C8.20036 9.0018 8.48088 8.99725 8.7582 9.0018C9.54699 9.01467 10.3358 8.99586 11.1246 9.0119C11.8358 9.00517 12.547 9.01071 13.2582 9.00893C13.3078 9.00893 13.3581 9.00398 13.4055 9.02497Z" fill="white"/>
<path d="M3.64853 9.02966C3.59235 9.03144 3.53616 9.03501 3.47998 9.03501C2.80936 9.0352 2.13875 9.0352 1.46793 9.03461C1.43494 9.03461 1.40195 9.03104 1.36896 9.02906C1.36956 8.16788 1.35336 7.3063 1.37476 6.44571C1.40975 5.03621 1.90441 3.79186 2.83376 2.72573C3.72431 1.70415 4.8396 1.03069 6.18064 0.783365C8.43122 0.368318 10.3527 1.00673 11.8957 2.68137C12.8144 3.6784 13.2993 4.87622 13.3903 6.22532C13.4244 6.73264 13.4006 7.24115 13.4046 7.74907C13.408 8.17461 13.4054 8.60035 13.4054 9.0259C13.3829 9.02907 13.3603 9.03481 13.3377 9.03481C12.6201 9.0354 11.9023 9.0354 11.1847 9.03501C11.1651 9.03501 11.1455 9.03065 11.1259 9.02847C11.0843 8.98411 11.0979 8.92867 11.0979 8.87758C11.0969 8.08273 11.1061 7.28769 11.0943 6.49304C11.0857 5.92373 10.9289 5.3877 10.659 4.88374C10.4439 4.48196 10.1563 4.13681 9.81384 3.83939C9.42654 3.50315 8.98247 3.2586 8.4882 3.10771C8.18768 3.01603 7.88117 2.96514 7.56605 2.95088C6.57413 2.90613 5.69957 3.20513 4.95497 3.8479C4.22757 4.47582 3.80629 5.27324 3.69712 6.2275C3.68252 6.35561 3.67692 6.48353 3.67692 6.61225C3.67772 7.36749 3.67752 8.12293 3.67672 8.87817C3.67652 8.92966 3.68812 8.98471 3.64853 9.02966Z" fill="white"/>
<path d="M7.38286 16.4459C6.92999 16.4459 6.47711 16.4443 6.02424 16.4475C5.94446 16.4481 5.92227 16.4364 5.94626 16.3507C6.1838 15.4998 6.41553 14.6475 6.65347 13.7966C6.67586 13.7168 6.66546 13.6788 6.59228 13.6323C5.94286 13.2204 5.73172 12.3707 6.10902 11.7083C6.49191 11.0362 7.33068 10.7689 8.02648 11.1121C8.51915 11.3552 8.80427 11.7586 8.84486 12.3055C8.88644 12.8681 8.65631 13.3126 8.18604 13.6301C8.11626 13.6772 8.09866 13.713 8.12146 13.7946C8.35799 14.639 8.58973 15.4847 8.82246 16.3301C8.85425 16.4455 8.85365 16.4459 8.73149 16.4461C8.28201 16.4463 7.83234 16.4461 7.38286 16.4461C7.38286 16.4463 7.38286 16.4461 7.38286 16.4459Z" fill="#1E2128"/>
</svg>
