<svg width="25" height="25" viewBox="0 0 25 25" fill="none" xmlns="http://www.w3.org/2000/svg">
<circle cx="12.5" cy="12.5" r="12.5" fill="#BF2DE2"/>
<path d="M12.9493 20.0944H12.0507C11.2864 20.0944 10.6611 19.4529 10.6611 18.669V6.54943C10.6611 5.76546 11.2864 5.12402 12.0507 5.12402H12.9493C13.7135 5.12402 14.3388 5.76546 14.3388 6.54943V18.669C14.3388 19.4529 13.7135 20.0944 12.9493 20.0944Z" fill="white"/>
<path d="M5.20361 12.9175V11.9957C5.20361 11.2117 5.82892 10.5703 6.59318 10.5703H18.408C19.1722 10.5703 19.7975 11.2117 19.7975 11.9957V12.9175C19.7975 13.7014 19.1722 14.3429 18.408 14.3429H6.59318C5.82892 14.3429 5.20361 13.7014 5.20361 12.9175Z" fill="white"/>
</svg>
